<svg width="100%" height="100%" id="svg" viewBox="0 0 1440 700" xmlns="http://www.w3.org/2000/svg" class="transition duration-300 ease-in-out delay-150"><path d="M 0,700 C 0,700 0,175 0,175 C 28.127004687885517,168.16642657860274 56.254009375771034,161.3328531572055 99,175 C 141.74599062422897,188.6671468427945 199.11096718480138,222.8350139497808 243,206 C 286.8890328151986,189.1649860502192 317.30212188502344,121.32709104367135 355,113 C 392.69787811497656,104.67290895632865 437.68054527510486,155.8566218755338 474,160 C 510.31945472489514,164.1433781244662 537.9756970145571,121.2464214541935 581,130 C 624.0243029854429,138.7535785458065 682.4166666666667,199.1576923076923 730,207 C 777.5833333333333,214.8423076923077 814.357636318776,170.12280931503733 851,161 C 887.642363681224,151.87719068496267 924.1527880582287,178.3510704321585 961,187 C 997.8472119417713,195.6489295678415 1035.0312114483097,186.47290895632864 1073,171 C 1110.9687885516903,155.52709104367136 1149.722366148532,133.7572937425269 1187,148 C 1224.277633851468,162.2427062574731 1260.0793239575623,212.49791607356372 1302,223 C 1343.9206760424377,233.50208392643628 1391.9603380212188,204.25104196321814 1440,175 C 1440,175 1440,700 1440,700 Z" stroke="none" stroke-width="0" fill="#fcb90066" class="transition-all duration-300 ease-in-out delay-150 path-0" transform="rotate(-180 720 350)"></path><path d="M 0,700 C 0,700 0,350 0,350 C 53.14621268196399,377.6337091233464 106.29242536392798,405.2674182466929 140,412 C 173.70757463607202,418.7325817533071 187.97651122625211,404.564036136575 224,383 C 260.0234887737479,361.435963863425 317.80152973106345,332.4764372070071 359,311 C 400.19847026893655,289.5235627929929 424.8173698494942,275.53021503539645 459,295 C 493.1826301505058,314.46978496460355 536.9289908709598,367.4027026514073 579,363 C 621.0710091290402,358.5972973485927 661.4666666666667,296.85897435897436 700,307 C 738.5333333333333,317.14102564102564 775.2043424623736,399.16139991269534 819,410 C 862.7956575376264,420.83860008730466 913.715963483839,360.4954259902446 961,333 C 1008.284036516161,305.5045740097554 1051.93180360227,310.8568961263262 1091,309 C 1130.06819639773,307.1431038736738 1164.556822107081,298.07698950445064 1205,299 C 1245.443177892919,299.92301049554936 1291.8409079694054,310.8351458558713 1332,321 C 1372.1590920305946,331.1648541441287 1406.0795460152972,340.5824270720643 1440,350 C 1440,350 1440,700 1440,700 Z" stroke="none" stroke-width="0" fill="#fcb90088" class="transition-all duration-300 ease-in-out delay-150 path-1" transform="rotate(-180 720 350)"></path><path d="M 0,700 C 0,700 0,525 0,525 C 40.060691985044315,529.6308128831445 80.12138397008863,534.261625766289 122,521 C 163.87861602991137,507.738374233711 207.57515610468982,476.5843098179886 249,490 C 290.4248438953102,503.4156901820114 329.57799161115224,561.4011349617567 364,582 C 398.42200838884776,602.5988650382433 428.1128774507013,585.8111503349845 466,569 C 503.8871225492987,552.1888496650155 549.9704985860427,535.3542636983052 597,526 C 644.0295014139573,516.6457363016948 692.0051282051281,514.7717948717948 736,524 C 779.9948717948719,533.2282051282052 820.0089885934447,553.5585568145153 858,556 C 895.9910114065553,558.4414431854847 931.9589174210935,542.9939778701437 964,527 C 996.0410825789065,511.0060221298563 1024.1553417221812,494.46553170490995 1066,506 C 1107.8446582778188,517.53446829509 1163.4197156901819,557.1438953102165 1206,554 C 1248.5802843098181,550.8561046897835 1278.165795517091,504.95888705422385 1315,493 C 1351.834204482909,481.04111294577615 1395.9171022414544,503.0205564728881 1440,525 C 1440,525 1440,700 1440,700 Z" stroke="none" stroke-width="0" fill="#fcb900ff" class="transition-all duration-300 ease-in-out delay-150 path-2" transform="rotate(-180 720 350)"></path></svg>